<?xml version="1.0" standalone="no"?>
<!DOCTYPE svg PUBLIC "-//W3C//DTD SVG 20010904//EN"
 "http://www.w3.org/TR/2001/REC-SVG-20010904/DTD/svg10.dtd">
<svg version="1.0" xmlns="http://www.w3.org/2000/svg"
 width="357.000000pt" height="499.000000pt" viewBox="0 0 357.000000 499.000000"
 preserveAspectRatio="xMidYMid meet">
<metadata>
Created by potrace 1.16, written by Peter Selinger 2001-2019
</metadata>
<g transform="translate(0.000000,499.000000) scale(0.100000,-0.100000)"
fill="#000000" stroke="none">
<path d="M12 4975 c2 -3 23 -6 46 -7 57 -2 54 -18 -3 -18 -39 0 -45 -3 -45
-21 0 -19 4 -20 39 -14 42 7 55 -2 45 -30 -6 -14 -15 -16 -45 -12 l-39 5 0
-2434 0 -2434 263 0 262 0 89 85 c49 47 92 85 95 85 11 0 11 -91 0 -111 -17
-32 6 -21 43 19 19 21 93 94 164 162 71 69 130 127 132 131 2 4 -61 10 -140
15 l-143 8 110 8 c61 5 131 7 158 5 l48 -4 320 316 c177 174 327 319 333 323
7 4 142 -121 346 -322 l334 -328 65 -4 c36 -3 68 -3 71 -1 2 2 -184 192 -415
423 l-418 418 -71 -1 c-138 -4 -869 3 -865 8 3 2 208 5 457 5 249 1 452 5 452
9 0 3 -155 161 -343 349 l-344 343 -51 -7 c-51 -6 -110 1 -98 13 3 4 33 5 66
4 33 -1 60 2 60 6 0 5 -119 127 -265 272 -146 145 -265 265 -265 268 0 2 25
29 55 61 55 57 63 72 26 53 -23 -13 -141 -21 -141 -10 0 4 13 21 30 38 29 32
30 32 116 30 l87 -2 217 222 218 221 -80 0 c-50 0 -77 4 -73 10 3 6 45 10 92
10 l86 0 193 192 c107 106 194 195 194 198 0 3 -33 6 -72 5 -112 0 -100 19 13
23 95 3 96 3 130 38 28 29 31 36 19 44 -12 8 -10 10 9 10 18 0 87 63 267 242
134 133 244 245 244 249 0 4 -13 4 -28 0 -16 -5 -45 -8 -66 -6 -31 2 -43 -4
-77 -38 -22 -22 -42 -37 -46 -34 -3 4 6 19 20 33 15 15 27 30 27 35 0 4 7 15
16 23 12 12 37 16 103 16 l87 0 47 48 c26 26 47 53 47 60 0 7 4 11 9 7 19 -11
21 15 6 82 l-14 68 37 32 c41 36 51 36 28 1 -11 -17 -15 -43 -13 -81 1 -31 4
-57 7 -57 5 0 87 81 476 469 l180 181 -686 0 -686 0 -49 -50 c-27 -27 -53 -50
-57 -50 -4 0 -8 23 -8 50 0 34 -4 50 -13 50 -10 0 -11 -15 -6 -62 l6 -63 -131
-133 -131 -133 -85 3 -85 3 193 193 192 192 -691 0 c-381 0 -690 -2 -687 -5z
m1098 -443 c0 -4 -70 -77 -155 -162 l-155 -155 0 90 0 90 72 72 72 73 83 0
c46 0 83 -3 83 -8z m-347 -269 c-2 -77 -6 -90 -27 -111 -21 -21 -34 -25 -105
-26 -45 0 -81 2 -81 5 0 8 203 219 211 219 3 0 4 -39 2 -87z m-93 -172 c0 -8
-63 -69 -352 -343 -48 -46 -68 -49 -38 -7 12 16 19 33 15 37 -4 4 -12 -1 -20
-11 -11 -15 -14 -15 -25 -2 -11 13 -16 12 -40 -5 -88 -63 -23 12 257 297 l42
43 81 0 c44 0 80 -4 80 -9z"/>
<path d="M1993 491 c-45 -9 -85 -19 -88 -23 -4 -4 -2 -22 4 -40 5 -18 13 -53
16 -78 4 -25 10 -48 13 -51 8 -7 167 22 177 33 7 7 -23 159 -34 169 -3 3 -43
-2 -88 -10z"/>
<path d="M2480 350 c0 -6 75 -85 167 -175 l167 -165 63 0 c35 0 63 4 63 8 0 4
-76 83 -168 175 l-168 167 -62 0 c-37 0 -62 -4 -62 -10z"/>
</g>
</svg>
