<?xml version="1.0" standalone="no"?>
<!DOCTYPE svg PUBLIC "-//W3C//DTD SVG 20010904//EN"
 "http://www.w3.org/TR/2001/REC-SVG-20010904/DTD/svg10.dtd">
<svg version="1.0" xmlns="http://www.w3.org/2000/svg"
 width="354.000000pt" height="499.000000pt" viewBox="0 0 354.000000 499.000000"
 preserveAspectRatio="xMidYMid meet">
<metadata>
Created by potrace 1.16, written by Peter Selinger 2001-2019
</metadata>
<g transform="translate(0.000000,499.000000) scale(0.100000,-0.100000)"
fill="#000000" stroke="none">
<path d="M10 2495 l0 -2485 45 0 45 0 0 450 0 450 115 0 115 0 0 -450 0 -450
198 0 197 0 49 76 c50 76 133 234 176 334 13 30 25 48 27 39 7 -31 -124 -301
-192 -394 -41 -56 -41 -55 27 -55 l63 0 38 103 c21 56 45 126 53 155 10 34 20
50 26 44 12 -12 -49 -193 -100 -294 -2 -5 79 -8 181 -8 l184 0 7 31 c3 17 6
42 6 55 0 14 15 55 34 92 34 68 104 273 126 372 26 114 31 130 38 130 20 0 70
-353 77 -542 l5 -133 815 -3 c736 -2 815 -1 815 14 0 11 -6 14 -22 8 -40 -13
-68 -4 -165 51 -24 13 -43 21 -43 18 0 -4 -8 1 -19 11 -10 9 -25 14 -35 10
-20 -8 -21 10 -3 62 17 47 38 169 73 409 14 99 32 223 40 275 33 215 36 261
19 280 -23 26 -235 173 -241 167 -4 -4 37 -36 184 -141 59 -43 60 -45 37 -162
-8 -42 -26 -156 -40 -253 -14 -97 -34 -232 -45 -301 -11 -69 -21 -155 -24
-192 -5 -76 -31 -132 -56 -122 -8 4 -28 12 -45 18 -16 6 -36 17 -43 24 -16 15
-11 15 -91 1 -36 -7 -76 -18 -88 -27 -21 -13 -23 -13 -23 2 0 9 7 16 15 16 8
0 15 5 15 10 0 13 -4 13 -47 -5 -41 -17 -53 -19 -53 -6 0 5 18 11 40 15 22 3
40 11 40 16 0 6 6 10 13 10 7 0 37 16 67 36 79 52 105 64 139 64 20 0 40 11
65 36 41 41 39 41 -108 -17 -118 -48 -145 -47 -46 0 39 19 69 36 67 38 -5 4
-299 -96 -391 -135 -81 -33 -102 -59 -40 -49 36 6 37 5 20 -8 -11 -8 -25 -15
-32 -15 -7 0 -26 -12 -43 -26 -17 -14 -31 -21 -31 -15 0 21 -29 -1 -39 -30 -7
-21 -16 -29 -33 -29 -13 0 -28 -4 -34 -9 -5 -5 -22 -11 -39 -14 -16 -3 -43 -8
-60 -12 -31 -7 -19 6 250 266 83 80 127 130 121 136 -5 6 -135 -90 -189 -139
-64 -59 -139 -122 -191 -161 -28 -21 -55 -44 -61 -51 -18 -21 -72 -56 -79 -49
-7 8 13 33 26 33 6 0 28 18 49 40 22 22 44 40 50 40 6 0 9 7 5 15 -3 8 0 15 6
15 6 0 9 3 5 6 -3 4 -20 -5 -37 -19 -17 -15 -37 -24 -45 -21 -23 9 -39 -6 -20
-20 16 -11 15 -13 -1 -27 -11 -8 -15 -9 -10 -1 4 7 1 12 -8 12 -9 0 -16 -7
-16 -15 0 -8 -5 -15 -11 -15 -6 0 -8 7 -5 16 4 10 0 15 -12 13 -55 -5 -62 0
-62 40 0 22 3 41 8 44 4 2 1 2 -7 0 -13 -3 -30 13 -31 29 0 12 399 262 570
355 60 34 82 61 33 42 -15 -6 -35 -16 -43 -23 -35 -30 -570 -310 -570 -299 0
8 54 42 66 42 6 0 34 28 34 34 0 3 -9 3 -20 0 -11 -3 -20 -9 -20 -14 0 -5 -7
-9 -15 -9 -19 0 -19 0 1 40 10 20 13 35 7 39 -6 3 -2 14 10 26 11 11 16 13 11
5 -4 -8 6 -3 24 12 17 14 54 34 81 43 27 9 54 22 60 29 6 7 49 30 96 51 47 21
84 40 81 42 -2 3 -46 -14 -96 -36 -93 -41 -120 -48 -120 -32 0 4 -19 21 -42
36 -24 16 -47 34 -51 42 -4 7 -14 13 -21 13 -7 0 -21 9 -31 20 -10 11 -24 20
-31 20 -7 0 -31 17 -54 38 -22 22 -41 37 -43 35 -2 -2 -21 10 -42 27 -20 16
-41 28 -45 25 -4 -2 -28 16 -54 41 -28 27 -52 42 -59 37 -9 -5 -9 -3 -1 8 6 8
12 54 13 104 2 86 10 109 36 102 6 -2 28 -33 50 -70 22 -37 44 -67 49 -67 5 0
4 6 -1 12 -6 7 -23 46 -38 86 -26 66 -31 72 -57 72 l-28 0 -1 83 c0 45 -4 122
-7 170 -4 49 -5 90 -2 91 3 2 95 -12 205 -30 110 -18 205 -32 210 -30 6 2 -24
9 -65 16 -41 7 -138 25 -215 39 l-140 27 -3 45 c-2 24 -8 49 -14 54 -7 7 -9
-6 -5 -43 l6 -54 -52 7 c-29 4 -74 13 -101 21 -47 13 -66 12 -66 -5 0 -8 40
-17 120 -27 104 -14 97 -10 104 -67 9 -75 9 -360 1 -444 -8 -79 -20 -90 -51
-48 -21 28 -44 33 -44 9 0 -9 11 -37 24 -64 22 -44 42 -135 38 -170 -4 -31
-25 -128 -44 -200 -21 -82 -115 -350 -127 -363 -5 -5 -11 117 -14 270 -3 153
-11 314 -16 358 -18 134 -55 335 -62 335 -4 0 -15 -35 -24 -77 -9 -43 -34
-143 -55 -223 -22 -80 -51 -214 -65 -299 -25 -151 -44 -218 -45 -159 0 15 7
59 15 99 17 78 15 97 -5 49 -7 -16 -17 -30 -22 -30 -12 0 -11 3 31 120 l31 85
0 237 c0 263 -17 430 -70 701 -36 182 -44 209 -105 357 -26 63 -67 170 -91
236 -23 67 -65 171 -92 230 -101 223 -156 382 -186 544 -18 91 -21 160 -6 125
4 -11 17 -70 29 -132 27 -147 113 -409 160 -490 15 -27 14 -16 -19 113 -121
480 -130 940 -27 1326 l24 87 -19 73 c-10 40 -20 78 -22 83 -7 22 -86 -251
-107 -372 -19 -109 -22 -167 -23 -385 -1 -142 -4 -258 -7 -258 -26 0 -14 517
15 680 17 90 68 268 97 336 16 39 16 48 1 140 -12 73 -16 172 -16 376 l-1 278
-287 0 -288 0 0 -2485z m271 1415 c43 -24 62 -108 36 -160 -37 -75 -170 -72
-205 6 -21 46 -15 90 19 129 28 31 36 35 81 35 27 0 58 -5 69 -10z m6 -277
c27 -18 43 -63 43 -119 l0 -44 -115 0 -115 0 0 46 c0 75 30 120 89 136 23 6
74 -4 98 -19z m1 -339 c13 -8 27 -26 32 -40 49 -129 -92 -227 -189 -132 -25
25 -31 39 -31 73 0 55 29 96 54 76 15 -13 15 -16 0 -38 -33 -52 34 -121 92
-95 36 17 52 57 34 90 -22 38 -40 39 -40 3 0 -24 -4 -31 -20 -31 -17 0 -20 7
-20 53 0 30 3 57 7 61 10 9 52 -1 81 -20z m38 -398 c-3 -14 -21 -30 -46 -41
-54 -24 -51 -39 6 -32 44 5 45 4 42 -22 l-3 -26 -114 -3 -113 -3 4 60 c5 73
26 101 74 101 25 0 38 -7 50 -24 l16 -25 41 30 c43 31 54 27 43 -15z m-39
-303 c25 -17 43 -69 43 -125 l0 -38 -115 0 -115 0 0 46 c0 117 95 177 187 117z
m12 -337 c22 -22 26 -35 26 -82 0 -50 -3 -58 -33 -85 -26 -23 -42 -29 -78 -29
-39 0 -51 5 -80 34 -39 39 -45 86 -19 136 33 65 131 78 184 26z m-8 -264 c26
-23 31 -36 36 -90 l6 -62 -107 0 c-58 0 -109 0 -113 0 -5 0 -8 28 -8 61 0 56
3 63 33 90 45 40 108 41 153 1z m14 -237 c35 -34 35 -96 0 -130 -22 -23 -32
-25 -115 -25 -89 0 -90 0 -90 25 0 25 1 25 83 25 85 0 107 8 107 42 0 27 -32
38 -114 38 -74 0 -76 1 -76 25 0 25 1 25 90 25 83 0 93 -2 115 -25z m-159
-217 c-1 -22 3 -23 92 -26 90 -3 93 -4 90 -25 -3 -21 -9 -22 -95 -25 -91 -3
-93 -3 -93 -27 0 -18 -5 -25 -20 -25 -18 0 -20 7 -20 75 0 72 1 75 23 75 18 0
23 -5 23 -22z m158 -169 c20 -15 26 -29 26 -58 0 -43 -23 -81 -50 -81 -20 0
-20 11 2 57 6 12 8 29 5 37 -11 28 -34 17 -50 -23 -20 -49 -42 -71 -73 -71
-57 0 -87 87 -44 130 28 28 53 27 44 -2 -3 -13 -11 -24 -15 -26 -15 -6 -10
-50 7 -56 11 -4 21 6 35 39 19 43 51 75 75 75 6 0 23 -9 38 -21z m-164 -224
c0 -31 3 -35 25 -35 22 0 25 4 25 35 0 30 3 35 23 35 18 0 22 -5 22 -32 0 -29
3 -33 25 -33 21 0 26 5 28 33 3 24 8 32 23 32 18 0 20 -6 17 -57 l-3 -58 -112
-3 -113 -3 0 61 c0 53 2 60 20 60 16 0 20 -7 20 -35z"/>
<path d="M603 4703 c5 -302 20 -440 43 -408 21 28 28 11 10 -24 -20 -37 -20
-45 0 -132 l16 -71 20 22 c11 12 17 28 14 37 -4 9 2 34 13 57 10 23 34 75 52
116 83 185 211 400 350 588 l70 93 -58 -3 -57 -3 -58 -80 c-98 -134 -209 -313
-279 -449 -36 -70 -69 -124 -72 -119 -14 23 188 373 320 555 35 48 63 90 63
93 0 3 -102 5 -226 5 l-226 0 5 -277z"/>
<path d="M1403 4966 c-4 -8 -57 -66 -118 -131 -225 -239 -433 -528 -522 -721
-24 -53 -27 -56 -39 -39 -17 22 -18 16 -4 -20 8 -20 6 -32 -5 -48 -17 -25 -19
-50 -6 -75 5 -9 20 -46 32 -82 19 -57 169 -429 289 -720 69 -168 121 -312 156
-435 19 -65 41 -126 48 -135 7 -8 21 -40 31 -70 10 -30 20 -62 23 -70 5 -13 3
-13 -11 -1 -30 24 -31 4 -1 -25 15 -16 33 -46 40 -69 7 -22 15 -48 19 -58 9
-21 -11 -23 -31 -2 -9 8 -21 15 -27 15 -7 0 2 -11 18 -23 17 -12 40 -32 51
-44 28 -30 55 -31 28 -2 -23 26 -57 142 -40 136 7 -3 122 -85 256 -183 399
-289 481 -347 486 -341 3 3 -27 29 -68 59 -40 29 -127 92 -193 140 -66 48
-129 94 -140 102 -11 8 -97 71 -192 140 l-171 126 -22 71 c-12 39 -19 73 -17
75 2 2 24 -11 48 -29 24 -19 73 -55 109 -81 36 -26 73 -54 83 -62 22 -18 25
-12 31 81 6 103 8 108 55 150 50 46 68 83 49 100 -7 6 -31 17 -53 24 -22 8
-48 21 -57 30 -9 9 -24 22 -32 28 -8 7 -18 39 -22 73 -5 50 -10 60 -25 60 -12
0 -19 7 -19 20 0 12 -12 32 -27 46 -17 14 -21 22 -10 18 11 -4 17 -1 17 7 0
11 3 11 10 -1 7 -11 12 -12 18 -4 5 9 10 8 19 -2 8 -7 9 -15 3 -19 -17 -10 2
-35 26 -35 14 0 24 -6 24 -14 0 -17 45 -26 159 -32 101 -6 126 -18 226 -116
38 -37 74 -68 80 -68 6 0 26 -13 45 -28 38 -31 149 -68 174 -59 21 8 20 46 0
75 -30 43 -14 52 97 52 84 0 107 -3 134 -20 34 -21 85 -81 85 -99 0 -6 9 -15
19 -21 26 -13 51 11 51 50 0 35 34 70 67 70 12 0 46 9 75 19 58 21 188 44 343
61 55 6 152 18 216 26 114 16 186 16 222 0 16 -7 17 0 17 93 l0 101 -407 2
c-611 2 -1438 1 -1613 -2 -85 -1 -210 -2 -278 -1 l-123 1 3 28 3 27 1208 3
1207 2 0 945 0 945 -816 0 c-721 0 -815 -2 -810 -15 3 -8 1 -15 -5 -15 -5 0
-15 -12 -21 -27 -7 -16 -24 -44 -38 -63 -39 -51 -42 -68 -20 -90 20 -20 20
-20 -20 -60 -23 -22 -47 -40 -55 -40 -7 0 -23 -12 -34 -26 -12 -16 -27 -24
-36 -21 -8 4 -17 2 -19 -2 -9 -15 -56 0 -56 18 0 20 -42 46 -90 56 -19 4 -56
16 -81 27 l-46 20 10 40 c7 30 7 42 -3 48 -18 11 1 40 67 99 31 28 51 51 44
51 -7 0 -34 -18 -59 -41 -86 -75 -100 -74 -39 4 16 20 24 37 18 37 -5 0 -14
-6 -18 -14z m238 -552 c18 -40 19 -52 10 -90 -6 -24 -10 -49 -9 -56 2 -7 -16
-15 -42 -20 -54 -11 -313 -3 -355 11 -23 7 -25 9 -9 10 14 1 26 12 34 31 16
40 114 138 143 145 20 4 69 8 170 13 36 2 39 0 58 -44z m-523 -336 c-3 -21 -9
-23 -68 -25 -36 -1 -70 -2 -76 -2 -8 -1 -11 -21 -10 -58 l2 -58 77 -3 c74 -3
78 -4 75 -25 -3 -20 -8 -22 -58 -20 -94 4 -96 3 -95 -69 l1 -63 77 -3 c69 -3
77 -5 77 -22 0 -19 -7 -20 -100 -20 l-99 0 -3 191 c-2 105 -1 193 1 195 2 2
49 4 103 4 97 0 99 0 96 -22z m382 -74 c0 -31 3 -35 20 -29 15 5 20 2 20 -13
0 -11 -9 -22 -20 -25 -18 -5 -20 -14 -20 -96 0 -84 1 -91 20 -91 15 0 20 -7
20 -25 0 -20 -5 -25 -27 -25 -52 0 -63 23 -63 132 0 91 -2 100 -20 105 -11 3
-20 12 -20 20 0 8 9 17 20 20 14 4 20 14 20 34 0 24 4 29 25 29 22 0 25 -4 25
-36z m500 7 c0 -23 5 -30 22 -33 31 -4 36 -36 6 -40 -22 -3 -23 -7 -26 -95 -2
-59 1 -93 8 -94 5 -1 16 -2 23 -3 6 0 13 -11 15 -23 3 -19 -1 -23 -23 -23 -59
0 -65 11 -65 126 0 97 -2 106 -20 111 -26 7 -26 33 1 40 13 4 20 13 18 27 -2
33 0 36 21 36 15 0 20 -7 20 -29z m538 -9 c2 -24 8 -32 20 -30 9 2 18 -5 20
-14 2 -13 -3 -18 -17 -18 -20 0 -21 -6 -21 -94 0 -85 2 -94 20 -99 12 -3 20
-14 20 -26 0 -17 -6 -21 -29 -21 -52 0 -61 20 -61 132 0 91 -2 100 -20 105
-11 3 -20 12 -20 20 0 8 9 17 20 20 14 4 20 14 20 35 0 25 4 29 23 26 17 -2
23 -11 25 -36z m-1194 -43 c28 -22 35 -59 11 -59 -8 0 -25 11 -39 25 -14 14
-30 25 -36 25 -16 0 -52 -40 -47 -53 2 -6 30 -22 63 -34 32 -13 65 -31 72 -40
18 -25 15 -67 -7 -94 -16 -20 -28 -24 -76 -24 -48 0 -60 4 -76 24 -22 27 -25
61 -6 61 8 0 24 -11 37 -25 34 -36 78 -32 93 7 7 21 -17 39 -75 58 -68 21 -88
81 -43 125 31 32 91 34 129 4z m449 1 c14 -11 28 -20 31 -20 3 0 6 9 6 20 0
13 7 20 20 20 19 0 20 -7 20 -135 l0 -135 -26 0 c-19 0 -25 4 -20 15 7 19 8
19 -39 -5 -22 -11 -48 -20 -59 -20 -34 0 -101 38 -119 69 -20 34 -22 105 -4
141 32 64 137 92 190 50z m591 -1 c29 -23 35 -59 10 -59 -9 0 -27 11 -40 25
-28 30 -35 31 -65 7 -32 -27 -20 -45 50 -71 62 -23 81 -42 81 -83 -1 -45 -45
-78 -103 -78 -43 0 -87 33 -87 66 0 32 25 31 46 -1 21 -32 67 -34 88 -3 20 28
8 42 -55 63 -79 26 -102 83 -54 130 31 32 91 34 129 4z m571 9 c14 -6 25 -17
25 -25 0 -19 -29 -28 -43 -14 -16 16 -69 14 -94 -4 -12 -8 -27 -31 -33 -50
-24 -72 28 -144 94 -130 55 11 79 10 83 -3 6 -16 -56 -42 -99 -42 -83 0 -150
91 -127 174 11 41 44 85 73 96 31 13 91 12 121 -2z m280 -8 l33 -20 5 20 c3
11 12 20 21 20 14 0 16 -18 16 -135 0 -128 -1 -135 -20 -135 -12 0 -20 7 -20
16 0 9 -3 14 -7 12 -90 -46 -138 -45 -190 7 -114 114 26 299 162 215z m-1946
-372 c60 -31 86 -80 86 -163 0 -116 -66 -173 -205 -178 l-75 -2 -3 175 c-1 96
0 180 2 187 8 21 141 8 195 -19z m1281 -58 c0 -26 4 -30 26 -30 33 0 30 -33
-4 -38 -22 -3 -23 -7 -20 -90 3 -82 4 -87 26 -90 14 -2 22 -10 22 -23 0 -15
-7 -19 -33 -19 -51 0 -57 13 -57 121 0 88 -2 97 -20 102 -11 3 -20 12 -20 21
0 9 8 16 20 16 16 0 20 7 20 30 0 23 4 30 20 30 16 0 20 -7 20 -30z m-692 -46
c25 -17 30 -54 6 -54 -9 0 -24 10 -33 22 -14 16 -24 19 -45 14 -58 -15 -42
-56 30 -76 74 -21 97 -78 49 -125 -31 -32 -91 -34 -129 -4 -31 25 -35 59 -6
59 11 0 20 -4 20 -10 0 -5 11 -17 25 -26 23 -15 27 -15 50 0 14 9 25 23 25 31
0 16 -49 45 -75 45 -24 0 -65 46 -65 73 0 23 31 59 60 70 20 8 60 -1 88 -19z
m270 5 c26 -10 27 -13 6 -33 -14 -14 -17 -14 -39 0 -77 50 -158 -84 -90 -151
27 -28 73 -33 105 -12 17 10 22 9 30 -3 15 -23 12 -27 -21 -39 -124 -43 -231
70 -172 182 35 68 96 87 181 56z m-528 -4 c30 -16 52 -49 64 -97 l6 -28 -110
0 c-122 0 -133 -8 -85 -55 29 -30 83 -33 120 -9 26 17 59 12 53 -8 -7 -20 -72
-48 -113 -48 -74 0 -135 61 -135 134 0 37 29 90 59 109 33 21 103 22 141 2z
m650 0 c0 -14 3 -14 25 1 13 8 32 14 42 12 25 -5 23 -32 -3 -36 -42 -6 -53
-32 -56 -127 -3 -82 -5 -90 -23 -90 -19 0 -20 8 -23 128 -2 122 -2 127 18 127
11 0 20 -7 20 -15z m580 -82 c19 -51 39 -91 44 -90 5 2 25 43 45 92 29 72 41
91 59 93 29 4 28 -3 -12 -89 -19 -41 -44 -96 -55 -122 -31 -73 -46 -62 -108
77 -29 66 -53 124 -53 129 0 4 10 7 22 5 19 -2 29 -20 58 -95z m386 82 c25
-19 45 -19 38 0 -4 10 0 15 15 15 20 0 21 -4 21 -130 0 -123 -1 -130 -20 -130
-13 0 -20 7 -20 20 0 11 -4 20 -10 20 -5 0 -10 -4 -10 -9 0 -17 -59 -33 -95
-27 -105 20 -142 154 -63 228 24 22 39 28 77 28 26 0 56 -7 67 -15z"/>
<path d="M1669 3911 c-40 -40 -41 -106 -3 -142 77 -73 203 27 148 119 -34 58
-99 68 -145 23z"/>
<path d="M3110 3910 c-86 -92 41 -229 130 -140 59 59 25 156 -57 167 -38 5
-45 2 -73 -27z"/>
<path d="M1140 3430 l0 -140 43 0 c86 0 147 58 147 140 0 82 -61 140 -147 140
l-43 0 0 -140z"/>
<path d="M3160 3463 c-28 -10 -59 -45 -65 -74 -11 -51 33 -109 84 -109 70 0
114 78 80 142 -8 16 -68 51 -81 47 -2 0 -10 -3 -18 -6z"/>
<path d="M663 3852 c-52 -180 -57 -225 -57 -462 0 -186 4 -247 23 -355 25
-149 57 -313 72 -368 l10 -37 37 30 c134 109 136 110 173 110 21 0 39 -3 41
-7 2 -5 19 -17 38 -27 19 -11 68 -44 108 -74 40 -30 75 -53 78 -50 10 10 -127
399 -226 643 -173 428 -249 619 -255 648 -3 15 -9 27 -13 27 -4 0 -17 -35 -29
-78z"/>
<path d="M2594 2285 c-12 -8 -24 -11 -28 -8 -3 3 -6 1 -6 -6 0 -7 -15 -18 -34
-26 -19 -8 -63 -38 -97 -66 -35 -28 -74 -56 -86 -62 -13 -5 -28 -24 -34 -42
-10 -26 -16 -31 -39 -27 -22 3 -30 -1 -35 -17 -3 -12 -4 -30 0 -40 3 -10 0
-25 -7 -33 -7 -7 -14 -20 -16 -28 -2 -8 -9 -18 -15 -22 -6 -4 -9 -10 -5 -13 5
-5 58 17 188 79 30 14 50 31 59 53 15 34 68 69 92 61 9 -4 4 -11 -18 -24 -38
-22 -44 -39 -10 -30 12 3 50 6 85 6 63 0 76 12 25 25 -14 3 -36 13 -47 21 -20
14 -19 14 14 8 19 -4 50 -13 68 -20 45 -18 171 -21 211 -4 l32 13 -36 25 c-19
14 -35 29 -35 34 0 4 -6 8 -13 8 -7 0 -22 8 -33 18 -10 10 -30 25 -44 35 -19
13 -21 17 -7 17 9 0 17 -4 17 -10 0 -5 9 -10 21 -10 11 0 43 -10 70 -21 37
-16 53 -19 61 -11 19 19 -6 37 -74 51 -35 8 -67 16 -73 20 -10 5 -71 12 -108
12 -15 0 -18 5 -13 25 7 28 -1 30 -30 9z"/>
<path d="M3120 2163 c0 -5 9 -14 21 -21 15 -10 18 -16 10 -26 -9 -10 -4 -17
21 -29 l33 -17 -27 0 c-31 0 -37 -14 -12 -28 15 -8 15 -11 -1 -36 -12 -17 -18
-44 -17 -71 1 -27 -3 -49 -13 -59 -8 -8 -15 -18 -15 -22 0 -5 5 -3 12 4 22 22
32 12 10 -11 -12 -13 -22 -28 -22 -35 0 -6 -9 -16 -19 -21 -17 -10 -18 -8 -11
24 4 19 4 35 0 35 -4 0 -10 9 -13 20 -5 18 -12 20 -55 17 -39 -3 -49 -1 -45 9
6 17 -39 19 -68 3 -15 -8 -24 -7 -35 2 -15 12 -169 7 -244 -7 -30 -6 -32 -5
-25 15 6 19 3 21 -32 21 -21 0 -47 -6 -58 -13 -11 -7 -39 -19 -63 -26 -24 -7
-46 -19 -49 -27 -3 -8 -17 -14 -33 -14 -15 0 -37 -9 -49 -19 -19 -17 -26 -18
-43 -8 -16 10 -21 9 -29 -5 -5 -9 -27 -19 -48 -23 -22 -3 -47 -15 -56 -25 -9
-10 -23 -16 -30 -14 -7 3 -20 -2 -29 -11 -16 -16 -83 -41 -99 -37 -5 2 -6 -2
-2 -8 4 -6 15 -10 24 -8 10 2 26 -3 35 -11 14 -12 26 -12 69 -2 29 7 64 17 79
23 25 9 34 5 95 -40 75 -55 113 -77 113 -65 -1 4 -37 32 -80 62 -44 30 -80 58
-80 62 0 13 90 49 122 49 16 0 48 9 70 20 74 36 147 45 227 30 56 -10 82 -11
124 -1 59 13 90 4 168 -45 32 -20 47 -23 81 -18 28 4 38 2 30 -4 -8 -5 -15
-33 -17 -63 -2 -30 -8 -76 -14 -103 -13 -54 -10 -62 16 -52 24 10 183 14 188
5 3 -4 -10 -13 -28 -20 -35 -14 -65 -39 -48 -39 6 0 11 -4 11 -9 0 -6 -12 -6
-29 -1 -21 6 -35 4 -48 -6 -26 -20 -86 -17 -115 5 -14 11 -39 19 -58 19 -23
-1 -39 6 -51 21 l-18 22 -7 -26 -6 -25 -20 36 c-20 37 -17 57 4 36 14 -14 28
-16 28 -3 0 5 -24 17 -52 26 -29 9 -59 18 -66 21 -7 2 -11 0 -8 -5 3 -5 19
-11 36 -14 16 -4 30 -13 30 -21 0 -18 -25 -27 -38 -14 -13 13 -32 2 -32 -18 0
-21 -18 -17 -25 6 -7 22 -20 26 -30 9 -8 -13 -45 18 -45 37 0 7 -10 18 -21 25
-17 9 -19 13 -8 19 19 12 -27 22 -82 18 l-44 -3 36 -17 c51 -23 61 -42 18 -33
-19 3 -42 9 -51 11 -9 3 -27 -5 -39 -17 -27 -27 -22 -87 12 -122 26 -28 144
-81 162 -73 9 3 8 5 -1 5 -10 1 -10 5 0 21 19 29 32 25 72 -22 32 -39 37 -42
56 -30 16 10 20 10 20 -2 0 -9 7 -12 19 -9 25 6 186 -24 230 -44 20 -9 45 -16
56 -15 16 1 17 0 3 -4 -28 -8 -21 -22 15 -29 17 -4 34 -10 37 -14 13 -15 53
-31 80 -31 17 0 48 -11 68 -25 20 -14 48 -25 62 -25 14 0 32 -5 40 -10 10 -7
-2 -9 -40 -7 l-55 2 -6 -50 c-3 -27 -9 -58 -14 -68 -6 -14 -2 -20 14 -24 18
-4 21 -13 21 -54 0 -27 -2 -49 -5 -49 -3 0 -12 16 -20 37 -24 57 -24 58 -45
-210 -12 -157 -13 -230 -1 -223 4 3 11 37 15 75 3 39 13 96 21 128 8 31 15 75
16 98 0 22 4 49 8 59 6 16 11 13 33 -25 30 -50 65 -85 161 -158 l67 -51 0 600
c0 330 -4 600 -8 600 -15 0 -152 121 -242 214 -76 78 -160 140 -160 119z"/>
<path d="M981 1717 c-1 -10 8 -54 19 -98 43 -169 82 -503 78 -671 -2 -70 0
-124 4 -120 4 4 28 88 53 187 l46 179 -31 101 c-62 200 -167 463 -169 422z"/>
<path d="M1786 1328 c3 -13 13 -30 21 -40 10 -11 11 -18 4 -23 -29 -17 8 -69
71 -98 20 -10 54 -33 74 -53 27 -25 40 -31 45 -22 4 7 4 15 0 18 -4 3 -13 15
-20 28 -7 12 -16 20 -20 17 -5 -3 -11 2 -14 9 -3 8 -1 16 5 18 7 3 3 22 -11
53 -12 26 -19 50 -17 53 3 2 36 -15 74 -39 64 -40 73 -49 102 -111 17 -37 36
-68 41 -68 6 0 7 6 3 12 -5 7 -20 47 -34 88 -23 69 -28 75 -55 78 -17 2 -32 7
-35 10 -15 20 -91 72 -104 72 -9 0 -16 5 -16 10 0 6 -7 10 -15 10 -8 0 -15 -4
-15 -8 0 -18 53 -137 63 -144 9 -5 9 -10 0 -19 -9 -9 -20 -4 -47 24 -20 19
-36 42 -36 51 0 36 -32 96 -52 96 -15 0 -18 -4 -12 -22z"/>
<path d="M2506 825 c-3 -9 0 -15 8 -15 19 0 54 -43 51 -62 -2 -10 -10 -25 -19
-33 -8 -9 -18 -32 -22 -53 -4 -20 -15 -52 -26 -70 -10 -18 -18 -39 -18 -47 0
-11 -7 -14 -27 -10 -23 5 -25 4 -10 -5 9 -6 17 -18 17 -25 0 -8 6 -15 13 -15
7 0 31 -9 53 -19 90 -44 192 -34 209 20 22 68 -70 236 -174 318 -45 36 -47 36
-55 16z"/>
<path d="M3020 350 l0 -130 130 0 130 0 0 130 0 130 -130 0 -130 0 0 -130z"/>
</g>
</svg>
