<?xml version="1.0" standalone="no"?>
<!DOCTYPE svg PUBLIC "-//W3C//DTD SVG 20010904//EN"
 "http://www.w3.org/TR/2001/REC-SVG-20010904/DTD/svg10.dtd">
<svg version="1.0" xmlns="http://www.w3.org/2000/svg"
 width="1000.000000pt" height="1000.000000pt" viewBox="0 0 1000.000000 1000.000000"
 preserveAspectRatio="xMidYMid meet">
<metadata>
Created by potrace 1.16, written by Peter Selinger 2001-2019
</metadata>
<g transform="translate(0.000000,1000.000000) scale(0.100000,-0.100000)"
fill="#000000" stroke="none">
<path d="M1270 6586 l0 -3413 25 -46 c30 -53 87 -107 147 -139 36 -19 58 -23
133 -23 78 0 97 4 140 27 58 30 129 102 153 156 16 34 17 202 23 2132 6 2270
2 2107 58 2327 100 388 344 734 680 962 163 111 392 205 611 253 90 19 135 22
315 22 238 0 327 -12 503 -70 175 -57 299 -129 622 -359 154 -109 338 -204
450 -232 93 -22 335 -25 420 -5 384 94 660 362 757 732 35 133 37 335 5 463
-58 232 -185 428 -368 567 -32 25 -60 48 -62 53 -2 4 -1041 7 -2308 7 l-2304
0 0 -3414z m4368 3088 c24 -17 30 -62 10 -82 -19 -19 -63 -14 -83 8 -18 20
-31 20 -1457 20 l-1438 0 0 -363 c0 -269 -3 -366 -12 -375 -7 -7 -24 -12 -38
-12 -14 0 -31 5 -38 12 -9 9 -12 106 -12 375 l0 363 -210 0 c-115 0 -210 -3
-210 -7 0 -5 20 -16 45 -26 24 -11 71 -44 103 -75 170 -165 173 -430 5 -598
-201 -202 -547 -147 -671 105 l-27 56 -3 -1710 c-1 -1154 -5 -1712 -12 -1719
-13 -13 -12 3530 1 3624 16 116 89 231 188 295 62 40 156 66 245 67 45 0 855
2 1801 4 1408 3 1722 7 1730 17 10 13 45 36 55 37 3 0 16 -7 28 -16z"/>
<path d="M1856 9305 c17 -13 14 -14 -43 -15 l-63 0 0 -90 0 -90 70 0 c40 0 70
4 70 10 0 6 -25 10 -55 10 -54 0 -55 0 -55 30 0 29 1 30 50 30 64 0 66 18 3
22 -44 3 -48 5 -51 31 l-3 27 205 0 c126 0 207 4 211 10 4 6 -34 10 -107 10
-75 0 -118 4 -126 12 -9 9 -12 9 -12 0 0 -17 -65 -15 -80 3 -7 8 -17 15 -23
15 -6 0 -2 -7 9 -15z"/>
<path d="M6930 7100 c-113 -16 -180 -96 -180 -212 0 -57 25 -122 56 -150 76
-67 227 -77 307 -22 61 43 87 95 87 173 0 45 -6 78 -20 107 -23 47 -82 92
-133 100 -62 10 -72 11 -117 4z m141 -73 c99 -66 89 -226 -17 -278 -55 -26
-131 -23 -172 8 -52 38 -67 70 -67 136 0 104 56 156 166 157 42 0 65 -6 90
-23z"/>
<path d="M7418 7099 c-60 -9 -103 -40 -118 -84 -29 -87 23 -127 198 -155 59
-10 76 -17 89 -36 14 -22 14 -26 -1 -49 -33 -50 -165 -58 -213 -13 -13 12 -23
27 -23 35 0 8 -13 13 -35 13 -42 0 -47 -22 -13 -65 61 -78 235 -88 317 -19 56
47 49 129 -14 165 -16 10 -70 25 -119 33 -87 15 -136 36 -136 57 0 6 13 24 29
40 26 26 36 29 91 29 55 0 65 -3 92 -30 19 -20 40 -30 59 -30 33 0 34 1 15 39
-30 57 -117 85 -218 70z"/>
<path d="M2465 7092 c-3 -3 -5 -95 -5 -204 l0 -198 30 0 29 0 3 88 3 87 105 5
c97 5 105 7 105 25 0 19 -8 20 -107 23 l-108 3 0 59 0 59 113 3 112 3 0 25 0
25 -137 1 c-76 1 -140 -1 -143 -4z"/>
<path d="M2836 7093 c-10 -10 -6 -235 5 -283 18 -81 85 -130 177 -130 95 0
160 39 181 109 6 21 11 100 11 175 l0 136 -30 0 -30 0 0 -137 c0 -166 -11
-200 -75 -222 -56 -19 -111 -8 -146 31 -28 29 -29 31 -31 176 l-3 147 -27 2
c-14 1 -29 -1 -32 -4z"/>
<path d="M3327 7094 c-4 -4 -7 -97 -7 -206 l0 -199 31 3 32 3 -2 158 c-1 89 2
157 7 157 5 0 60 -72 122 -160 l113 -160 44 0 43 0 -2 203 -3 202 -27 3 -28 3
-1 -88 c-1 -48 -1 -123 -1 -166 -1 -43 -4 -76 -8 -75 -5 2 -59 75 -122 163
-107 150 -116 160 -149 163 -19 2 -38 0 -42 -4z"/>
<path d="M3818 6922 c-2 -97 -2 -190 0 -205 l4 -29 126 4 c113 3 132 6 172 28
59 33 90 92 90 172 0 72 -17 115 -59 151 -43 36 -91 47 -221 52 l-109 4 -3
-177z m251 102 c56 -22 75 -56 76 -131 0 -106 -45 -144 -182 -151 l-83 -5 0
152 0 151 75 0 c45 0 90 -6 114 -16z"/>
<path d="M4463 7088 c-14 -17 -203 -383 -203 -392 0 -4 15 -6 33 -4 27 3 36
11 57 50 l25 48 122 0 123 0 25 -50 c23 -46 28 -50 61 -50 l35 0 -105 203
c-97 187 -107 202 -134 205 -16 2 -33 -3 -39 -10z m86 -154 c22 -44 41 -84 41
-87 0 -4 -40 -7 -90 -7 -49 0 -90 4 -90 9 0 20 84 181 90 174 4 -4 26 -44 49
-89z"/>
<path d="M4806 7093 c-3 -3 -6 -96 -6 -205 l0 -198 30 0 30 0 2 173 3 172 88
-172 c86 -171 88 -173 120 -173 32 0 33 2 119 173 l87 172 0 -172 1 -173 30 0
30 0 0 204 0 204 -46 -2 -47 -1 -87 -175 c-83 -165 -89 -174 -100 -150 -7 14
-46 93 -89 175 l-76 150 -41 2 c-23 2 -44 0 -48 -4z"/>
<path d="M5460 6894 l0 -205 153 3 c144 3 152 4 152 23 0 19 -8 20 -122 23
l-123 3 0 64 0 64 113 3 c104 3 112 4 112 23 0 18 -8 20 -110 25 l-110 5 -3
57 -3 57 118 3 c112 3 118 4 121 24 4 30 -23 35 -174 33 l-124 -1 0 -204z"/>
<path d="M5867 7094 c-4 -4 -7 -97 -7 -206 l0 -199 31 3 31 3 0 158 c-1 86 3
157 6 157 4 0 59 -72 121 -160 l113 -160 44 0 44 0 -2 203 -3 202 -27 3 c-37
4 -40 -13 -36 -187 2 -77 0 -141 -3 -141 -4 0 -34 39 -67 88 -159 230 -165
237 -203 240 -19 2 -38 0 -42 -4z"/>
<path d="M6312 7091 c-8 -5 -12 -17 -10 -27 3 -16 14 -19 86 -22 l82 -3 0
-175 0 -175 33 3 32 3 3 172 2 172 83 3 c80 3 82 4 82 28 l0 25 -190 2 c-104
2 -196 -1 -203 -6z"/>
<path d="M5243 6396 c-36 -17 -60 -38 -80 -67 -24 -37 -28 -52 -28 -118 0 -90
19 -130 83 -175 35 -25 53 -30 121 -34 72 -4 86 -2 133 21 62 31 97 77 109
142 19 100 -29 197 -116 236 -60 27 -157 25 -222 -5z m222 -60 c41 -31 59 -82
53 -148 -6 -58 -31 -96 -79 -120 -41 -22 -120 -23 -158 -3 -121 62 -115 242 9
294 43 19 136 6 175 -23z"/>
<path d="M6165 6407 c-87 -34 -129 -98 -129 -197 -1 -137 79 -210 229 -210 87
0 160 38 192 99 32 62 32 161 0 222 -34 63 -105 99 -196 98 -36 0 -79 -6 -96
-12z m175 -55 c53 -26 80 -74 80 -141 0 -101 -59 -161 -159 -161 -117 0 -188
89 -162 203 23 97 145 147 241 99z"/>
<path d="M6712 6407 c-83 -31 -142 -111 -142 -197 0 -90 67 -178 152 -201 49
-13 183 -7 241 11 l37 11 0 94 0 95 -95 0 c-95 0 -95 0 -95 -25 0 -24 2 -25
65 -25 l65 0 0 -48 c0 -48 -1 -49 -39 -60 -57 -17 -141 -15 -181 6 -43 21 -76
69 -85 123 -5 31 -2 50 17 86 32 65 64 86 140 91 68 5 123 -15 133 -49 8 -23
75 -28 75 -5 0 24 -42 68 -84 87 -47 21 -152 24 -204 6z"/>
<path d="M2440 6211 l0 -201 111 0 c60 0 130 5 155 11 92 23 142 106 131 217
-8 72 -33 111 -92 142 -44 22 -64 25 -177 29 l-128 3 0 -201z m264 128 c50
-24 69 -61 69 -129 0 -109 -55 -152 -188 -148 l-80 3 -3 149 -3 148 88 -4 c49
-2 101 -11 117 -19z"/>
<path d="M2940 6210 l0 -200 156 0 155 0 -3 23 c-3 21 -7 22 -125 25 l-123 3
0 64 0 65 109 0 c99 0 109 2 114 19 3 11 2 22 -1 25 -3 3 -54 6 -114 6 l-108
0 0 60 0 60 120 0 120 0 0 25 0 25 -150 0 -150 0 0 -200z"/>
<path d="M3549 6403 c0 -5 -1 -93 -1 -198 l0 -190 31 -3 31 -3 0 85 0 86 88 0
c105 0 116 -8 126 -88 9 -74 14 -82 48 -82 l30 0 -7 48 c-11 82 -25 121 -48
138 -16 12 -19 17 -8 21 33 13 51 44 51 89 0 58 -12 79 -51 93 -36 12 -288 15
-290 4z m259 -59 c26 -18 30 -65 7 -88 -17 -16 -100 -29 -160 -24 l-40 3 -3
63 -3 62 88 0 c64 0 95 -4 111 -16z"/>
<path d="M4052 6210 l-104 -200 36 0 c33 0 38 4 61 50 l25 50 120 0 120 0 25
-50 c23 -46 28 -50 61 -50 20 0 34 3 32 8 -1 4 -48 94 -102 200 l-99 192 -36
0 -36 0 -103 -200z m188 50 c22 -44 40 -84 40 -90 0 -6 -35 -10 -90 -10 -49 0
-90 3 -90 8 0 17 81 172 90 172 5 0 28 -36 50 -80z"/>
<path d="M4490 6209 l0 -201 133 4 c119 3 136 5 176 28 74 42 108 140 81 235
-27 98 -105 135 -282 135 l-108 0 0 -201z m267 128 c43 -23 63 -64 63 -129 0
-107 -53 -148 -190 -148 l-80 0 0 151 0 151 88 -4 c55 -3 99 -11 119 -21z"/>
<path d="M4980 6210 l0 -200 30 0 30 0 0 200 0 200 -30 0 -30 0 0 -200z"/>
<path d="M5690 6210 l0 -200 145 0 145 0 0 25 0 25 -115 0 -115 0 0 175 0 175
-30 0 -30 0 0 -200z"/>
<path d="M7110 6210 l0 -200 30 0 30 0 0 200 0 200 -30 0 -30 0 0 -200z"/>
<path d="M7331 6215 c-56 -108 -101 -198 -101 -200 0 -3 15 -5 33 -5 30 0 36
5 57 50 l23 50 124 0 123 0 25 -50 c22 -43 29 -50 55 -50 17 0 30 5 30 10 0
10 -159 323 -187 368 -10 16 -23 22 -47 22 l-34 0 -101 -195z m184 45 c25 -49
45 -92 45 -95 0 -3 -40 -5 -90 -5 -52 0 -90 4 -90 10 0 10 82 180 87 180 2 0
23 -40 48 -90z"/>
<path d="M5750 4895 l0 -95 95 0 95 0 0 95 0 95 -95 0 -95 0 0 -95z m144 54
c33 -26 35 -73 4 -106 -29 -31 -72 -30 -103 2 -68 67 23 164 99 104z"/>
<path d="M2681 4590 c-119 -32 -201 -90 -255 -183 -53 -89 -54 -112 -60 -802
-2 -352 -1 -628 4 -613 4 15 13 298 19 630 7 332 14 622 17 646 l5 42 45 0 44
0 1 -122 c0 -68 0 -726 -1 -1463 l-1 -1341 20 -18 c20 -19 53 -19 1003 -13
l983 5 21 25 c21 25 22 36 28 404 11 682 16 1009 22 1701 l7 683 42 -3 43 -3
5 -535 c5 -484 14 -809 35 -1261 6 -122 11 -162 25 -183 l17 -26 253 0 c138 1
682 7 1207 15 525 7 958 11 962 7 3 -4 10 -179 14 -390 7 -409 7 -406 57 -416
12 -3 206 -10 432 -16 465 -13 417 -21 457 79 l23 56 3 1558 2 1557 -2702 -1
c-2641 0 -2705 -1 -2777 -19z m527 -336 c17 -3 22 -10 18 -21 -4 -9 -4 -31 0
-49 6 -34 7 -34 63 -34 81 0 133 -10 123 -24 -11 -13 4 -199 18 -236 17 -45
27 -139 20 -187 -7 -41 -4 -52 16 -79 21 -27 24 -41 24 -123 0 -78 -3 -96 -21
-121 -14 -18 -20 -36 -16 -51 7 -25 -15 -48 -45 -49 -10 0 -18 -5 -18 -11 0
-5 4 -8 9 -4 5 3 12 1 16 -5 4 -6 -11 -10 -39 -10 -61 0 -59 -16 4 -25 53 -7
78 -25 36 -25 -16 0 -26 -6 -26 -14 0 -16 -30 -26 -82 -26 -37 0 -53 -20 -28
-35 8 -5 8 -11 0 -20 -8 -10 -8 -15 0 -20 8 -5 6 -13 -6 -26 -9 -10 -14 -25
-11 -34 4 -8 2 -15 -3 -15 -12 0 -22 -34 -14 -54 5 -13 9 -14 20 -5 17 14 19
-7 4 -46 -12 -31 -31 -25 -22 7 3 14 2 19 -6 14 -7 -4 -12 -14 -12 -22 0 -12
-19 -14 -117 -12 l-118 3 -6 30 -7 30 -1 -27 c-1 -24 -5 -27 -33 -27 -18 0
-41 -1 -51 -3 -15 -2 -24 12 -44 67 -14 39 -32 79 -39 90 -15 21 -19 39 -6 31
9 -6 7 97 -2 113 -13 20 -25 12 -35 -21 l-9 -33 -1 41 c-1 22 2 44 6 48 10 10
11 49 2 68 -14 27 5 29 57 7 73 -33 138 -30 199 9 60 38 53 41 -16 7 -68 -35
-139 -27 -186 21 -32 31 -43 64 -23 64 6 0 10 20 10 45 0 32 -4 45 -14 45 -21
0 -29 31 -12 49 22 26 85 219 96 296 5 39 10 114 10 168 l0 97 50 0 50 0 0 80
0 80 98 -5 c53 -4 108 -8 120 -11z m950 -63 l52 -1 0 -45 c0 -51 0 -50 108
-59 35 -2 67 -7 70 -11 4 -4 7 -43 7 -88 0 -45 4 -87 7 -93 4 -6 2 -25 -4 -41
-10 -26 -9 -34 5 -48 16 -16 16 -18 -3 -46 -22 -30 -86 -54 -120 -45 -11 4
-29 9 -40 12 -29 8 -26 -22 5 -42 26 -17 120 -16 160 1 11 4 17 5 13 0 -4 -4
-3 -14 3 -22 9 -10 8 -13 -4 -13 -8 0 -17 -6 -20 -12 -6 -17 12 -50 22 -43 11
6 -8 -76 -20 -89 -16 -18 -40 15 -34 46 4 17 2 28 -4 28 -6 0 -11 -13 -11 -29
0 -16 -6 -32 -12 -34 -8 -3 -6 -6 4 -6 16 -1 16 -3 -2 -33 -12 -20 -16 -35 -9
-39 9 -5 -2 -42 -32 -101 -5 -10 -9 -25 -9 -35 0 -9 -7 -24 -15 -33 -19 -21
-37 -95 -66 -262 l-23 -138 -36 0 c-67 0 -109 12 -115 31 -6 18 -26 28 -24 12
4 -25 -4 -33 -35 -33 l-34 0 -6 118 c-11 197 -28 344 -48 402 -21 59 -26 80
-33 149 -3 25 -9 48 -14 51 -5 3 -15 27 -22 53 -6 27 -15 45 -20 40 -5 -5 -2
-26 6 -48 8 -22 14 -53 14 -70 -1 -22 -7 -10 -25 44 -25 80 -21 104 20 100 12
0 32 0 46 1 22 2 21 3 -10 12 -19 6 -29 13 -22 15 20 7 14 21 -15 35 -21 10
-28 21 -29 43 0 17 -6 43 -12 58 -13 31 -16 164 -4 170 4 2 52 0 107 -3 55 -4
101 -6 102 -5 2 1 6 36 9 78 l7 76 56 -4 c31 -2 80 -4 109 -4z m2532 -165 c20
-7 45 -9 56 -5 32 13 52 10 58 -9 3 -9 20 -23 36 -31 28 -12 33 -11 44 5 13
17 14 17 25 -4 6 -11 11 -28 11 -36 0 -9 9 -16 20 -16 22 0 27 -16 8 -22 -8
-3 -6 -8 7 -15 22 -11 85 9 85 27 0 6 11 3 24 -5 22 -15 27 -15 55 0 18 9 31
11 31 5 0 -5 -6 -10 -12 -11 -10 0 -10 -2 0 -6 6 -2 12 -19 12 -37 0 -52 -48
-89 -118 -90 -46 -1 -55 -4 -58 -20 -4 -29 -24 -44 -24 -18 0 29 -20 29 -21 0
l0 -23 -16 23 c-21 29 -29 28 -47 -10 -20 -38 -20 -52 -2 -45 16 7 36 -11 36
-33 0 -13 -1 -13 -10 0 -5 8 -10 11 -10 5 0 -5 5 -17 11 -25 8 -11 12 -12 16
-2 2 6 9 12 14 12 14 0 10 -33 -7 -58 -10 -15 -14 -32 -9 -50 6 -25 5 -26 -12
-11 -10 9 -24 14 -32 11 -7 -2 -17 2 -22 9 -4 7 -11 10 -16 6 -4 -5 -1 -12 7
-17 8 -5 11 -12 7 -17 -4 -4 -17 -2 -27 5 -26 16 -31 15 -28 -5 2 -13 -5 -18
-32 -20 -19 -2 -54 -16 -78 -33 -49 -34 -60 -36 -88 -14 -18 14 -18 15 6 9
l25 -6 -29 26 c-35 32 -26 45 14 21 28 -16 32 -16 64 -1 18 9 38 27 44 40 8
17 20 25 38 25 18 0 25 4 21 14 -3 7 0 19 6 25 8 8 8 14 0 22 -8 8 -42 8 -124
-1 -63 -7 -135 -14 -161 -17 -59 -6 -187 34 -250 79 -52 36 -209 199 -202 210
5 7 112 0 126 -8 13 -8 40 -65 34 -71 -3 -3 -13 0 -22 8 -16 13 -16 12 -1 -16
31 -60 120 -122 160 -111 11 3 49 -6 84 -20 39 -16 71 -23 81 -18 16 7 16 7
-1 11 -9 3 -14 9 -10 15 4 7 0 9 -10 5 -26 -10 -79 61 -71 96 3 16 1 27 -5 27
-6 0 -17 11 -23 25 -6 14 -17 25 -25 25 -18 0 -17 16 2 24 12 4 15 24 15 87
l0 82 141 -7 c78 -4 158 -13 179 -20z m-1218 -548 c4 -10 10 -10 33 0 23 11
30 10 46 -4 10 -9 23 -13 29 -9 14 9 88 -42 95 -66 3 -10 15 -21 26 -24 11 -4
18 -9 15 -12 -2 -3 7 -16 21 -29 20 -18 29 -21 39 -13 12 9 14 3 14 -34 0 -37
4 -49 21 -57 16 -9 19 -18 15 -36 -4 -13 -2 -24 3 -24 5 0 8 -33 7 -72 -2 -41
2 -79 8 -87 9 -12 7 -13 -6 -8 -23 8 -40 -22 -26 -47 7 -12 7 -21 -1 -29 -16
-16 -13 -37 5 -37 9 0 14 -6 11 -12 -2 -7 -12 -12 -21 -12 -11 1 -16 -6 -16
-23 0 -13 -4 -22 -8 -19 -11 6 -58 -31 -50 -40 12 -11 96 26 117 52 10 13 22
40 25 59 10 50 63 134 72 112 3 -10 3 -29 -2 -45 -4 -15 -8 -34 -9 -42 -1 -8
-5 -23 -9 -32 -5 -10 -6 -24 -3 -31 2 -6 -7 -28 -20 -47 l-25 -35 7 30 7 30
-24 -21 c-13 -12 -39 -29 -58 -39 -43 -21 -81 -55 -75 -66 3 -4 -4 -14 -15
-22 -26 -18 -15 -28 17 -16 14 5 28 7 30 5 3 -3 -19 -12 -49 -20 -36 -11 -56
-23 -63 -38 -7 -16 -22 -25 -54 -30 -76 -13 -119 -58 -72 -76 16 -6 17 -9 5
-20 -11 -10 -14 -10 -14 1 0 8 -9 17 -19 20 -14 3 -18 11 -14 26 4 14 1 21
-10 21 -17 0 -27 20 -27 53 0 12 -9 28 -19 34 -11 7 -26 25 -33 40 -12 25 -18
28 -61 26 -29 -1 -62 -10 -84 -24 -29 -18 -35 -20 -30 -6 4 10 -3 24 -18 39
-14 13 -25 27 -25 31 0 4 -12 19 -27 32 -16 13 -23 25 -16 25 6 0 15 -4 18
-10 7 -11 45 -14 45 -3 0 4 -10 17 -22 30 l-22 24 39 -6 c34 -5 42 -3 53 15
15 24 6 68 -10 52 -7 -7 -17 -3 -30 10 -11 11 -28 18 -37 15 -10 -2 -26 2 -36
9 -26 20 -57 18 -53 -2 2 -10 -3 -19 -10 -21 -7 -3 -10 1 -6 10 4 11 -2 17
-23 20 -27 4 -27 5 -5 12 24 8 30 25 10 25 -8 1 -5 7 6 15 14 11 17 21 11 42
-3 15 -12 31 -18 35 -9 6 -9 8 1 8 15 0 54 -61 48 -77 -5 -12 51 -39 61 -29 3
3 -1 6 -9 6 -18 0 -33 16 -42 48 -5 13 -3 22 3 22 6 0 11 -7 11 -15 0 -8 5
-15 10 -15 17 0 11 30 -7 37 -25 10 -52 44 -53 67 0 14 5 17 25 14 14 -3 25
-1 25 4 0 6 7 7 16 4 8 -3 13 -2 10 2 -3 5 -1 25 4 45 4 21 4 35 -1 31 -5 -3
-9 0 -9 6 0 6 -4 9 -9 6 -10 -6 -21 16 -21 42 0 14 2 15 9 2 6 -8 7 -18 5 -22
-3 -4 -1 -8 4 -8 20 0 32 29 34 79 3 58 20 83 37 54 9 -16 10 -16 11 5 0 21
17 28 58 23 6 -1 12 3 12 8 0 11 62 43 76 40 5 -1 16 0 24 4 53 20 87 22 92 5z
m-1977 -650 c-6 -29 -18 -65 -81 -245 -8 -23 -14 -45 -13 -50 4 -22 -2 -44
-10 -39 -5 4 -17 -14 -27 -39 -9 -25 -27 -54 -38 -63 -26 -21 -56 -85 -55
-115 1 -19 2 -19 15 8 l14 30 -6 -35 c-4 -19 -10 -36 -15 -38 -5 -2 -4 -12 1
-23 9 -15 13 -17 25 -7 8 8 10 17 4 22 -5 6 -9 15 -9 20 0 6 5 4 11 -4 8 -11
9 -3 5 33 -3 26 -2 47 3 47 13 0 22 -30 14 -43 -3 -7 4 -3 17 8 13 11 21 15
17 10 -3 -6 -2 -17 3 -25 8 -12 12 -11 26 9 17 23 18 23 25 5 6 -16 8 -16 8
-2 1 9 10 23 22 31 13 10 16 17 10 22 -12 7 3 46 17 44 4 -1 10 0 15 1 4 1 13
3 20 4 7 1 11 13 9 33 -2 18 3 42 11 54 15 20 15 20 21 -8 4 -24 3 -619 -2
-961 l-2 -103 -47 2 c-66 2 -143 19 -143 31 0 6 6 8 13 5 43 -16 56 -17 68 -4
8 8 20 12 29 10 8 -2 21 5 28 17 7 12 8 20 2 20 -5 0 -10 -4 -10 -10 0 -18
-18 -10 -23 10 -3 11 -9 20 -14 19 -22 -5 -43 14 -38 35 5 15 4 17 -3 7 -7 -9
-19 -11 -37 -7 -25 6 -26 8 -11 25 21 23 20 34 -4 56 -15 14 -17 21 -9 32 9
10 8 17 -2 31 -29 37 -49 52 -63 46 -9 -4 -16 -1 -16 6 0 8 -8 10 -22 5 -13
-3 -30 -6 -38 -6 -45 0 -60 -9 -54 -33 3 -13 1 -27 -4 -30 -6 -4 -8 2 -5 15 5
17 2 20 -18 17 -13 -1 -24 2 -25 7 0 6 -4 18 -9 28 -6 14 1 27 24 51 38 39 39
56 6 56 -25 0 -30 13 -28 68 1 10 -6 12 -23 8 -27 -7 -27 -6 -15 48 5 21 6 46
2 55 -22 44 -26 77 -15 111 7 21 8 39 3 46 -12 14 -1 24 19 17 10 -2 4 8 -13
23 -16 15 -22 25 -12 21 9 -4 24 -10 32 -13 11 -5 13 0 6 24 -10 33 -3 82 10
82 5 0 8 -3 8 -7 -1 -5 -1 -17 0 -28 2 -18 3 -18 16 5 l14 25 1 -30 c2 -78 10
-192 15 -220 15 -75 30 -115 42 -111 7 3 13 -1 13 -9 0 -8 -6 -15 -12 -15 -9
0 -8 -4 2 -10 27 -17 31 -11 23 33 -20 107 4 303 48 389 5 10 6 25 3 35 -5 15
-4 16 5 3 10 -13 15 -11 36 15 14 17 25 39 25 50 0 11 6 29 13 40 14 21 130
293 142 333 10 34 17 26 10 -10z m4179 -104 l46 -7 0 -56 c0 -32 5 -62 10 -67
6 -6 20 -66 31 -135 11 -68 31 -155 44 -194 13 -38 22 -72 20 -73 -2 -2 -12
13 -23 35 -19 38 -33 90 -67 253 -10 47 -22 90 -26 95 -3 6 -10 25 -14 44 -6
28 -9 31 -17 18 -5 -9 -16 -17 -23 -17 -8 0 -15 -5 -15 -11 0 -5 -5 -7 -11 -3
-8 5 -8 9 1 14 15 10 41 80 29 80 -4 0 -11 -9 -14 -20 -12 -38 -55 -11 -55 34
0 18 14 19 84 10z m-3564 -263 c-7 -14 -7 -27 -1 -39 6 -12 5 -41 -4 -87 -14
-74 -12 -90 11 -81 9 3 14 0 12 -7 -4 -18 32 -107 43 -107 6 0 7 15 3 35 -8
44 -1 44 25 -1 25 -42 26 -48 6 -41 -17 7 -30 -9 -15 -18 5 -3 10 -14 10 -23
0 -9 9 -28 19 -41 l19 -24 15 29 16 29 1 -52 c0 -30 -7 -68 -17 -88 -13 -28
-15 -40 -6 -54 16 -25 14 -115 -3 -163 -20 -59 -17 -134 9 -227 23 -76 22 -97
0 -68 -10 12 -45 108 -50 138 -4 26 -30 69 -37 62 -9 -9 -35 28 -36 50 0 10
-8 17 -20 17 -11 0 -25 9 -32 20 -15 24 -31 25 -48 5 -14 -17 -80 -21 -80 -5
0 6 -14 10 -31 10 l-31 0 26 31 c32 37 32 42 4 62 l-23 16 28 0 c27 1 36 14
16 26 -6 4 -8 13 -5 21 3 8 -6 20 -24 29 -16 8 -37 28 -47 45 -17 30 -24 34
-54 31 -18 -2 -50 63 -69 140 -9 36 -9 52 2 79 l14 34 16 -98 c10 -64 22 -104
33 -115 16 -15 17 -14 11 9 -16 61 -17 156 -3 195 l16 40 1 -60 c0 -58 1 -59
18 -39 9 12 25 24 35 27 9 4 17 13 17 22 0 13 18 20 42 16 4 0 5 9 3 21 -4 17
-2 19 7 10 21 -21 31 -13 25 23 -5 30 -3 35 14 35 14 0 19 -7 19 -27 0 -49 17
-59 25 -16 4 21 13 49 20 63 8 14 17 46 20 72 4 29 13 51 23 57 22 13 26 7 12
-18z m2585 -91 c10 -11 24 -20 32 -20 7 0 13 -5 13 -11 0 -5 -8 -9 -17 -8 -52
5 -61 -23 -13 -40 24 -8 30 -7 30 4 0 21 16 26 44 14 27 -13 35 -27 14 -26
-48 1 -51 -1 -33 -29 14 -22 15 -28 4 -35 -19 -12 -54 -11 -83 2 -18 8 -29 9
-38 2 -8 -6 -69 -10 -143 -10 -71 0 -111 2 -88 4 36 4 45 9 58 36 15 31 103
107 123 107 5 0 14 6 20 13 17 20 58 18 77 -3z"/>
</g>
</svg>
