<?xml version="1.0" standalone="no"?>
<!DOCTYPE svg PUBLIC "-//W3C//DTD SVG 20010904//EN"
 "http://www.w3.org/TR/2001/REC-SVG-20010904/DTD/svg10.dtd">
<svg version="1.0" xmlns="http://www.w3.org/2000/svg"
 width="250.000000pt" height="350.000000pt" viewBox="0 0 250.000000 350.000000"
 preserveAspectRatio="xMidYMid meet">
<metadata>
Created by potrace 1.16, written by Peter Selinger 2001-2019
</metadata>
<g transform="translate(0.000000,350.000000) scale(0.100000,-0.100000)"
fill="#000000" stroke="none">
<path d="M242 612 c-1 -13 -13 -35 -27 -50 -47 -50 -45 -105 6 -152 36 -33 97
-47 349 -85 266 -40 489 -74 660 -100 363 -57 421 -65 530 -76 144 -15 168
-15 255 -6 160 17 278 76 321 159 20 40 13 55 -38 77 -24 10 -52 28 -62 40
-25 28 -36 13 -36 -51 0 -36 -4 -48 -15 -48 -8 0 -15 5 -15 12 0 6 -7 19 -16
29 -14 16 -19 16 -87 -1 -40 -10 -84 -21 -99 -24 -25 -6 -28 -11 -28 -49 l0
-43 -182 28 c-250 38 -1235 183 -1385 204 l-122 17 -4 71 c-1 39 -4 61 -5 48z"/>
</g>
</svg>
