<?xml version="1.0" standalone="no"?>
<!DOCTYPE svg PUBLIC "-//W3C//DTD SVG 20010904//EN"
 "http://www.w3.org/TR/2001/REC-SVG-20010904/DTD/svg10.dtd">
<svg version="1.0" xmlns="http://www.w3.org/2000/svg"
 width="725.000000pt" height="1024.000000pt" viewBox="0 0 725.000000 1024.000000"
 preserveAspectRatio="xMidYMid meet">
<metadata>
Created by potrace 1.16, written by Peter Selinger 2001-2019
</metadata>
<g transform="translate(0.000000,1024.000000) scale(0.100000,-0.100000)"
fill="#000000" stroke="none">
<path d="M2 5123 l3 -5118 1045 -3 1046 -2 154 44 c85 24 214 65 285 91 154
55 434 190 560 270 337 212 634 524 793 830 73 140 164 347 197 448 168 517
215 1144 140 1892 -8 83 -18 167 -21 187 l-6 38 421 0 421 0 0 561 0 560 -433
-3 -432 -3 -1 30 c-1 17 -2 1215 -3 2663 l-1 2632 -2085 0 -2085 0 2 -5117z
m2376 4224 l2 -238 -22 3 c-20 3 -23 10 -26 56 -4 64 -5 64 -132 14 l-95 -38
-3 -138 c-2 -86 1 -143 8 -151 6 -7 49 -27 97 -45 106 -40 117 -36 121 44 3
52 5 56 28 56 l25 0 -3 -152 c-3 -150 -3 -153 -25 -156 -20 -3 -23 1 -23 32 0
57 -14 80 -62 98 -23 9 -104 40 -178 69 -310 118 -446 171 -465 179 -11 5 -65
25 -120 46 -119 45 -125 49 -125 83 0 25 12 31 308 144 300 116 356 137 417
162 17 7 57 22 90 35 33 12 69 26 80 30 11 5 28 11 38 14 13 4 17 16 17 51 0
42 2 46 23 43 l22 -3 3 -238z m0 -858 c2 -17 -6 -37 -24 -58 l-26 -32 24 -37
c69 -104 72 -262 6 -390 -139 -276 -486 -374 -740 -210 -89 57 -155 130 -197
218 -35 72 -36 79 -36 185 0 99 3 116 27 168 l28 58 -21 28 c-11 16 -19 39
-17 52 3 24 4 24 136 27 l132 3 0 -26 c0 -21 -10 -30 -62 -56 -126 -60 -177
-134 -178 -254 0 -152 52 -178 380 -190 208 -8 400 5 455 31 74 36 107 115 86
209 -23 101 -98 184 -199 221 -62 23 -75 39 -63 82 1 1 65 1 144 0 l142 -3 3
-26z m-930 -982 l3 -57 437 2 437 3 3 58 c3 53 5 57 28 57 l24 0 -2 -247 -3
-248 -22 -3 c-22 -3 -23 0 -23 57 l0 61 -440 0 -439 0 -3 -57 c-3 -50 -6 -58
-23 -58 -19 0 -20 8 -23 248 l-2 248 22 -3 c20 -3 23 -9 26 -61z m232 -520 c0
-20 -11 -29 -66 -52 -136 -58 -164 -106 -164 -281 l0 -114 194 0 c120 0 197 4
201 10 3 6 3 31 -1 57 -9 64 -53 110 -119 127 -43 10 -50 16 -53 39 l-3 27
210 0 211 0 0 -25 c0 -19 -6 -26 -27 -30 -57 -12 -117 -41 -135 -66 -11 -14
-22 -50 -25 -82 l-6 -57 217 0 216 0 0 70 c0 68 1 70 25 70 l25 0 0 -255 0
-255 -25 0 c-24 0 -25 3 -25 60 l0 60 -440 0 -440 0 0 -60 c0 -57 -1 -60 -25
-60 l-25 0 0 413 c0 228 3 417 7 420 3 4 66 7 140 7 133 0 133 0 133 -23z
m-230 -967 l0 -60 440 0 440 0 0 60 c0 57 1 60 25 60 l25 0 0 -244 c0 -136 -4
-247 -9 -250 -5 -4 -16 -3 -25 0 -12 5 -16 20 -16 60 l0 54 -440 0 -440 0 0
-55 c0 -52 -1 -55 -25 -55 l-25 0 0 245 0 245 25 0 c24 0 25 -3 25 -60z m-307
18 c45 -62 157 -288 157 -318 0 -17 -5 -30 -10 -30 -16 0 -250 231 -266 262
-31 61 -1 118 62 118 26 0 38 -7 57 -32z m572 -542 c0 -13 -10 -22 -30 -28
-162 -49 -235 -122 -235 -236 l0 -52 440 0 440 0 0 61 c0 57 1 60 23 57 l22
-3 3 -248 2 -248 -22 3 c-20 3 -23 9 -26 61 l-3 57 -439 0 -440 0 0 -54 c0
-108 49 -165 188 -218 61 -24 82 -36 82 -50 0 -21 -22 -22 -208 -11 l-112 6 2
456 3 456 110 6 c177 9 200 7 200 -15z m-267 -1038 c2 -27 10 -52 19 -60 13
-10 111 -13 477 -15 390 -2 461 -4 464 -16 5 -22 17 -12 -338 -268 -69 -49
-142 -102 -163 -117 -21 -15 -57 -41 -80 -58 -23 -17 -98 -73 -167 -123 -68
-50 -118 -91 -110 -91 8 -1 182 -1 385 0 421 1 395 -5 395 88 0 50 2 53 23 50
22 -3 22 -6 25 -164 2 -141 0 -162 -14 -168 -26 -10 -34 2 -34 53 0 29 -6 53
-14 60 -9 8 -133 10 -437 9 l-424 -3 -3 -57 c-3 -54 -5 -58 -27 -58 l-25 0 0
198 0 198 238 174 c130 95 252 184 270 197 17 13 32 28 32 34 0 5 -89 9 -223
9 -262 0 -264 -1 -269 -83 -3 -45 -6 -52 -25 -55 -23 -3 -23 -3 -23 151 0 84
3 157 7 161 4 4 14 5 23 4 10 -2 16 -17 18 -50z m-478 -574 c0 -80 -3 -105
-12 -102 -7 3 -14 15 -16 27 -3 17 -8 21 -20 16 -9 -4 -29 -11 -44 -17 -20 -7
-28 -18 -33 -48 -9 -55 2 -100 28 -109 62 -23 65 -23 69 5 2 15 9 29 16 32 9
3 12 -15 12 -68 0 -53 -3 -71 -12 -68 -7 3 -14 14 -16 25 -3 23 -31 36 -272
126 -112 42 -145 59 -145 72 0 19 -1 19 277 126 95 37 138 58 141 71 3 10 10
18 16 18 7 0 11 -36 11 -106z m-300 -313 c0 -4 -20 -16 -45 -25 -51 -20 -75
-48 -75 -88 l0 -28 194 0 194 0 6 25 c15 58 26 20 26 -86 0 -84 -3 -110 -12
-107 -7 3 -14 14 -16 26 -3 22 -6 22 -198 22 l-194 0 0 -28 c0 -40 24 -68 75
-88 25 -9 45 -21 45 -26 0 -5 -33 -8 -72 -6 l-73 3 -3 195 c-1 107 0 200 2
207 6 15 146 19 146 4z m1708 -608 l2 -433 -24 0 c-23 0 -25 4 -28 58 l-3 57
-437 3 -438 2 0 -49 c0 -30 -5 -51 -12 -54 -37 -13 -38 -5 -38 408 l0 402 120
8 c65 3 124 4 130 0 5 -3 10 -17 10 -29 0 -17 -9 -27 -32 -37 -18 -7 -57 -28
-86 -46 -77 -48 -92 -86 -92 -235 l0 -117 191 -3 c105 -2 195 0 201 3 5 3 6
28 2 59 -9 68 -41 104 -114 128 -46 16 -55 23 -55 43 l0 24 205 0 205 0 3 -26
c3 -24 -1 -27 -44 -33 -91 -12 -144 -72 -144 -161 l0 -35 216 0 217 0 -5 128
c-7 195 -35 235 -213 306 -44 18 -61 30 -63 45 -3 21 -2 21 160 19 l163 -3 3
-432z m-1457 126 c55 -39 74 -123 45 -192 -11 -28 -11 -36 0 -52 23 -31 17
-35 -56 -35 -68 0 -70 1 -60 20 6 11 16 20 23 20 25 0 74 56 81 93 14 74 -40
139 -97 118 -32 -12 -42 -28 -56 -86 -22 -91 -47 -134 -85 -150 -68 -28 -132
-13 -175 41 -23 30 -29 120 -10 155 7 15 7 24 -1 34 -20 24 -1 35 56 35 41 0
54 -4 54 -15 0 -8 -7 -15 -16 -15 -9 0 -31 -15 -50 -34 -27 -27 -34 -42 -34
-73 0 -51 23 -83 60 -83 34 0 53 29 64 95 10 59 46 117 86 138 46 24 127 17
171 -14z m-371 -358 c0 -27 26 -31 213 -31 l168 0 10 30 c6 17 15 30 20 30 13
0 7 -219 -6 -223 -5 -1 -11 10 -13 26 l-3 27 -195 0 -194 0 0 -25 c0 -16 -6
-25 -15 -25 -12 0 -15 18 -15 103 0 57 3 107 6 110 11 10 24 -3 24 -22z m0
-246 c0 -18 34 -36 125 -65 39 -12 75 -25 80 -29 6 -3 57 -22 115 -41 65 -22
105 -41 105 -49 0 -14 -168 -89 -335 -151 -56 -21 -78 -34 -88 -54 -7 -14 -17
-24 -23 -21 -13 9 -12 192 2 200 6 4 13 -2 16 -14 3 -12 8 -21 11 -21 4 0 42
15 87 34 44 19 98 42 119 50 22 9 37 18 34 21 -6 7 -196 76 -225 82 -18 4 -22
0 -25 -23 -5 -49 -23 -32 -26 25 -2 29 -1 60 2 68 7 17 26 8 26 -12z m900
-105 l0 -60 438 2 437 3 3 58 c3 53 5 57 27 57 l25 0 0 -245 0 -245 -25 0
c-24 0 -25 3 -25 55 l0 55 -440 0 -440 0 0 -55 c0 -52 -1 -55 -25 -55 l-25 0
0 245 0 245 25 0 c24 0 25 -3 25 -60z m-502 -346 c22 -6 22 -8 22 -201 0 -151
-3 -194 -12 -190 -7 2 -14 9 -14 15 -1 7 -2 19 -3 27 -1 13 -29 15 -191 15
l-190 0 -11 -27 c-21 -56 -29 -6 -27 168 l3 174 58 3 c46 2 57 0 57 -13 0 -8
-6 -15 -14 -15 -8 0 -28 -13 -45 -29 -28 -26 -31 -35 -31 -90 l0 -61 85 0 c67
0 87 3 91 15 9 22 -22 64 -51 71 -31 8 -32 22 -2 29 38 10 160 1 164 -12 2 -6
-8 -13 -23 -15 -31 -4 -70 -49 -61 -72 5 -13 24 -16 97 -16 65 0 90 3 91 13 3
48 -5 115 -16 133 -7 12 -34 31 -59 43 -25 11 -46 26 -46 31 0 11 91 13 128 4z
m1432 -240 c0 -14 -11 -39 -25 -56 -27 -32 -30 -43 -15 -53 18 -11 51 -96 61
-156 35 -220 -128 -451 -370 -523 -77 -23 -213 -21 -293 4 -157 48 -293 182
-343 339 -26 80 -18 207 20 289 l28 63 -22 22 c-11 13 -21 35 -21 50 l0 27 83
0 c45 0 106 3 135 6 l52 7 0 -31 c0 -27 -6 -33 -57 -57 -127 -58 -183 -134
-183 -249 0 -130 37 -166 190 -186 96 -12 488 -13 561 -1 116 19 164 62 175
158 14 116 -75 244 -205 294 -54 21 -61 27 -61 51 l0 28 145 0 145 0 0 -26z
m-1406 -226 c20 -80 -21 -133 -110 -142 -91 -10 -107 -17 -118 -54 -5 -18 -7
-34 -5 -37 2 -2 47 -5 99 -6 91 -2 95 -1 100 21 3 13 11 25 18 28 9 3 12 -23
12 -102 0 -101 -12 -145 -26 -91 l-6 25 -193 0 c-193 0 -194 0 -197 -22 -2
-13 -7 -21 -13 -18 -6 3 -10 65 -10 155 0 125 3 156 18 187 45 89 150 68 178
-36 l11 -39 18 40 c23 51 48 66 125 73 57 5 60 6 63 33 5 38 25 29 36 -15z"/>
<path d="M1878 9063 c-82 -31 -148 -58 -148 -62 0 -4 183 -81 311 -129 5 -2 9
53 9 122 0 95 -3 126 -12 125 -7 0 -79 -26 -160 -56z"/>
<path d="M556 1424 c-10 -25 -7 -92 4 -96 5 -1 43 -2 85 0 l75 4 0 28 c0 16
-4 40 -10 54 -9 24 -14 26 -79 26 -54 0 -70 -4 -75 -16z"/>
<path d="M7040 5120 l1 -5121 97 3 97 3 3 5118 2 5117 -100 0 -100 0 0 -5120z"/>
<path d="M5348 9321 c-99 -32 -140 -96 -146 -227 -6 -140 23 -376 73 -583 13
-53 21 -98 19 -100 -2 -3 -45 12 -95 32 -74 31 -102 37 -160 37 -79 0 -114
-14 -152 -60 -34 -39 -47 -88 -47 -171 0 -113 10 -157 42 -189 46 -46 113 -62
283 -66 83 -2 170 -10 195 -17 l45 -13 27 -102 c15 -56 57 -180 94 -275 36
-94 84 -219 106 -276 22 -58 51 -152 63 -209 24 -106 46 -149 108 -215 21 -22
31 -27 36 -18 11 17 4 50 -32 161 l-31 95 -7 365 c-3 201 -10 372 -14 381 -3
10 -3 19 2 22 4 3 64 -1 133 -8 265 -28 412 -29 575 -5 83 12 170 20 195 17
41 -5 43 -4 25 10 -36 27 -162 81 -206 88 -64 10 -212 59 -389 127 -85 33
-186 70 -225 82 -38 13 -98 35 -132 51 -68 30 -67 28 -94 151 -6 27 -14 202
-19 389 -7 296 -10 349 -28 409 -29 99 -53 120 -145 123 -39 1 -84 -2 -99 -6z"/>
<path d="M4544 8589 c-16 -16 -40 -22 -106 -28 -47 -4 -90 -11 -97 -15 -8 -5
-10 -59 -8 -196 4 -209 6 -215 74 -267 36 -27 39 -28 151 -25 124 2 159 13
179 52 73 149 75 158 68 279 -8 120 -21 151 -64 151 -10 0 -42 16 -71 35 -59
40 -96 44 -126 14z"/>
<path d="M6030 7604 c-53 -45 -74 -98 -74 -189 -1 -60 4 -89 18 -114 33 -62
79 -98 147 -117 107 -28 183 12 251 132 48 86 88 124 131 124 51 0 87 -34 94
-87 8 -58 -10 -95 -63 -128 -24 -15 -44 -31 -44 -35 0 -17 75 -100 90 -100 10
0 40 20 67 45 67 59 86 111 81 213 -7 149 -78 229 -213 240 -108 8 -156 -25
-248 -167 -23 -36 -55 -74 -70 -85 l-28 -21 -37 21 c-67 39 -69 121 -4 181
l36 33 -39 40 c-21 22 -45 40 -51 40 -7 0 -27 -12 -44 -26z"/>
<path d="M5972 7023 l3 -77 95 -12 c52 -7 165 -22 250 -34 85 -11 193 -25 239
-31 47 -6 94 -14 105 -19 19 -7 17 -9 -14 -18 -19 -6 -123 -42 -230 -82 -107
-39 -244 -88 -305 -109 -149 -52 -187 -69 -181 -80 3 -5 34 -25 69 -44 34 -19
109 -62 167 -94 296 -168 349 -198 400 -226 30 -16 59 -33 64 -37 12 -12 -80
-18 -409 -31 -159 -6 -294 -14 -298 -19 -5 -4 113 -88 262 -186 148 -99 270
-182 270 -185 1 -3 -32 -18 -71 -34 -40 -15 -113 -43 -163 -62 -49 -19 -114
-43 -142 -54 -123 -46 -163 -63 -163 -69 0 -6 46 -22 253 -88 57 -17 71 -36
93 -121 29 -113 -2 -214 -87 -281 -152 -120 -420 -31 -475 158 -30 101 -4 215
65 294 l32 37 -33 6 c-18 3 -60 7 -93 8 l-60 2 -28 -57 c-59 -118 -58 -291 3
-415 111 -224 414 -320 640 -202 53 28 127 109 155 172 31 68 46 175 36 252
-5 33 -7 62 -5 64 2 2 67 -17 145 -43 78 -25 143 -45 145 -43 4 4 6 42 5 100
-1 39 -5 57 -14 57 -19 0 -351 101 -360 109 -9 9 20 22 178 81 193 73 229 87
232 96 1 5 -90 69 -202 143 -113 74 -205 138 -205 143 0 4 83 8 185 8 l185 0
0 143 0 142 -78 41 -77 41 0 138 0 137 75 27 75 27 3 151 3 151 -33 6 c-18 3
-73 10 -123 16 -73 9 -377 50 -548 75 l-38 5 3 -77z"/>
<path d="M6190 4719 c-107 -39 -231 -83 -275 -99 -44 -16 -138 -50 -210 -76
-187 -67 -185 -66 -185 -74 0 -4 46 -34 103 -67 115 -67 536 -306 612 -348 28
-15 76 -43 107 -61 l56 -32 4 76 c2 42 2 84 0 92 -2 9 -27 28 -57 44 -30 15
-72 40 -94 54 l-41 26 0 131 c0 71 3 139 6 150 3 14 25 28 67 44 132 49 117
32 117 127 0 46 -3 84 -7 83 -5 0 -96 -32 -203 -70z m-120 -304 c0 -47 -4 -85
-10 -85 -5 0 -31 12 -57 28 -26 15 -69 39 -95 52 -26 13 -45 26 -43 28 7 7
170 61 188 61 15 1 17 -9 17 -84z"/>
<path d="M5560 3880 l0 -250 23 -4 c12 -2 65 -9 117 -16 109 -13 337 -44 490
-66 58 -8 128 -18 157 -21 l51 -6 4 67 c5 98 2 102 -79 110 -37 3 -119 14
-180 23 l-113 16 0 163 c0 93 -4 165 -10 169 -5 3 -39 8 -75 12 l-65 6 0 -161
c0 -88 -3 -163 -7 -165 -5 -2 -42 1 -83 7 l-75 12 -3 166 -2 167 -33 5 c-17 3
-51 7 -74 11 l-43 5 0 -250z"/>
<path d="M4501 1668 c-51 -27 -47 -108 6 -129 32 -12 77 -4 94 18 18 20 16 80
-2 98 -21 21 -70 28 -98 13z"/>
<path d="M4920 1605 c0 -68 2 -75 19 -75 16 0 21 8 23 38 l3 37 14 -27 c8 -16
19 -28 25 -28 6 0 19 12 28 28 l17 27 1 -37 c0 -31 4 -38 20 -38 18 0 20 7 20
76 0 66 -2 75 -17 72 -10 -2 -27 -20 -38 -41 -11 -20 -23 -37 -27 -37 -4 0
-18 18 -30 40 -13 22 -31 40 -40 40 -16 0 -18 -10 -18 -75z"/>
<path d="M5310 1671 c0 -5 7 -14 15 -21 25 -21 27 -49 6 -79 -26 -36 -26 -41
-3 -41 10 0 25 11 32 25 l14 26 21 -27 c12 -15 28 -25 38 -23 15 4 14 8 -9 41
l-26 37 22 31 c12 17 26 28 30 23 5 -4 19 -35 32 -68 35 -88 55 -86 95 10 27
67 29 75 13 75 -12 0 -24 -15 -37 -45 -10 -25 -21 -45 -24 -45 -4 0 -14 20
-23 45 -17 43 -20 45 -56 45 -29 0 -43 -6 -55 -22 l-16 -23 -16 23 c-15 21
-53 31 -53 13z"/>
<path d="M4310 1395 c0 -68 2 -75 20 -75 17 0 20 7 20 41 l0 41 33 -40 c17
-23 40 -41 50 -41 15 -1 17 9 17 74 0 68 -2 75 -20 75 -17 0 -20 -7 -20 -41
l0 -41 -32 40 c-18 23 -41 41 -50 41 -16 1 -18 -9 -18 -74z"/>
<path d="M4640 1395 c0 -68 2 -75 20 -75 16 0 20 7 20 38 l1 37 15 -27 c8 -16
21 -28 28 -28 7 0 19 12 27 28 l14 27 3 -37 c2 -30 7 -38 23 -38 17 0 19 7 19
75 0 67 -2 75 -19 75 -11 0 -22 -8 -25 -17 -4 -10 -15 -29 -25 -42 l-19 -24
-26 41 c-41 65 -56 56 -56 -33z"/>
<path d="M4980 1395 c0 -68 2 -75 20 -75 13 0 20 7 20 20 0 11 6 20 13 20 7 0
18 -9 25 -20 7 -11 21 -20 32 -20 19 0 19 2 6 23 -13 19 -13 25 0 41 32 44 -2
86 -71 86 l-45 0 0 -75z"/>
<path d="M5161 1458 c-51 -27 -47 -108 6 -129 32 -12 77 -4 94 18 18 20 16 80
-2 98 -21 21 -70 28 -98 13z"/>
<path d="M4470 1185 c0 -68 2 -75 20 -75 17 0 20 7 20 41 l0 41 33 -40 c17
-23 40 -41 50 -41 15 -1 17 9 17 74 0 68 -2 75 -20 75 -17 0 -20 -7 -20 -41
l0 -41 -32 40 c-18 23 -41 41 -50 41 -16 1 -18 -9 -18 -74z"/>
<path d="M4671 1248 c-51 -27 -47 -108 6 -129 32 -12 77 -4 94 18 18 20 16 80
-2 98 -21 21 -70 28 -98 13z"/>
<path d="M6020 1185 c0 -68 2 -75 20 -75 16 0 20 7 20 38 l1 37 15 -27 c8 -16
21 -28 28 -28 7 0 19 12 27 28 l14 27 3 -37 c2 -30 7 -38 23 -38 17 0 19 7 19
75 0 67 -2 75 -19 75 -11 0 -22 -8 -25 -17 -4 -10 -15 -29 -25 -42 l-19 -24
-26 41 c-41 65 -56 56 -56 -33z"/>
<path d="M6610 1185 c0 -68 2 -75 20 -75 13 0 20 7 20 20 0 11 6 20 13 20 7 0
18 -9 25 -20 7 -11 21 -20 32 -20 19 0 19 2 6 23 -13 19 -13 25 0 41 32 44 -2
86 -71 86 l-45 0 0 -75z"/>
<path d="M4650 975 c0 -68 2 -75 20 -75 17 0 20 7 20 41 l0 41 33 -40 c17 -23
40 -41 50 -41 15 -1 17 9 17 74 0 68 -2 75 -20 75 -17 0 -20 -7 -20 -41 l0
-41 -32 40 c-18 23 -41 41 -50 41 -16 1 -18 -9 -18 -74z"/>
</g>
</svg>
